<?xml version="1.0" encoding="UTF-8" standalone="no"?>
<svg
   xmlns:dc="http://purl.org/dc/elements/1.1/"
   xmlns:cc="http://creativecommons.org/ns#"
   xmlns:rdf="http://www.w3.org/1999/02/22-rdf-syntax-ns#"
   xmlns:svg="http://www.w3.org/2000/svg"
   xmlns="http://www.w3.org/2000/svg"
   id="svg3774"
   version="1.1"
   viewBox="0 0 26.076997 11.64363"
   height="11.64363mm"
   width="26.076996mm">
  <defs
     id="defs3768" />
  <metadata
     id="metadata3771">
    <rdf:RDF>
      <cc:Work
         rdf:about="">
        <dc:format>image/svg+xml</dc:format>
        <dc:type
           rdf:resource="http://purl.org/dc/dcmitype/StillImage" />
        <dc:title></dc:title>
      </cc:Work>
    </rdf:RDF>
  </metadata>
  <g
     transform="translate(-92.123065,-116.33976)"
     id="layer1">
    <path
       style="clip-rule:evenodd;opacity:1;fill:#000000;fill-rule:nonzero;stroke-width:0.00239074;image-rendering:optimizeQuality;shape-rendering:geometricPrecision;text-rendering:geometricPrecision"
       id="path17"
       d="m 92.512737,120.45398 0.992133,-1.89571 -1.336393,1.65431 z m 25.684933,2.65608 v 0 l -3.90148,0.59761 -1.14505,2.1157 1.54426,0.18168 3.50466,-2.89499 z m -12.2377,-6.7703 v 0 l -0.30108,1.50596 2.37129,1.40807 2.24255,0.10075 -0.68356,-0.88467 -3.63141,-2.12776 z m -13.836905,3.99006 0.20799,4.00899 0.43987,0.43752 -0.346656,-3.96849 -0.301204,-0.4757 z m 14.277005,7.57344 0.87234,-0.002 0.60981,-0.30819 -0.22733,-0.78191 -0.96797,-0.62618 -0.28455,1.71881 z m -2.48864,-2.88322 0.65251,1.22411 0.85825,1.45359 0.79127,0.19348 0.7937,-4.72145 z m -7.619096,2.90955 2.402532,0.0538 -0.0246,-0.58579 -0.977822,-1.3314 z m 1.025536,-7.94898 -4.757315,0.78664 0.896503,1.76178 3.863247,-2.54842 z m -3.911036,2.81152 2.765988,4.52767 1.431914,-1.47975 0.588188,-3.19861 -0.557061,-2.51964 -4.229029,2.6727 z m 9.696486,1.99369 -0.1244,-0.95381 -3.8299,0.61669 3.95677,0.33712 z m -5.11831,-4.71668 0.604772,2.51493 -0.583383,1.78822 4.920061,-0.82244 -1.14274,-3.93005 z m -4.011594,-1.88613 c 0,0 -1.180969,2.25908 -1.111638,2.25435 0.06936,-0.005 4.862551,-0.65255 4.862551,-0.65255 l 0.54506,-1.9724 -4.298349,0.37291 z m 4.487161,-0.3636 -0.542637,2.02023 3.86578,-0.47808 0.28439,-1.69258 -3.60982,0.15291 z m 4.800303,6.12485 0.31098,0.91571 4.36774,-2.40026 z m 4.93924,-1.74273 -2.71089,-4.13095 -3.57175,1.48931 1.23109,4.15738 z m -5.83312,-4.6306 -0.41598,1.82169 3.5453,-1.53481 0.30362,-1.48211 -3.43071,1.19523 z m 3.25851,0.44227 2.08914,3.14603 0.2344,-1.75959 z m 3.52598,4.04261 -0.1003,-0.36811 -1.13575,-0.0724 0.59536,0.68123 0.63808,-0.23896 z m 0.33948,-2.47435 -1.44374,-0.11723 -0.13409,1.8218 1.56354,-1.60887 m -1.45594,1.76426 1.11661,0.14345 0.84851,-0.56195 -0.16003,-1.37443 -1.80729,1.79293 z m 1.95806,-1.66384 0.16968,1.23354 0.38244,-0.19613 0.22476,-1.28834 -0.77932,0.25093 z m 1.94362,-0.11006 -0.28441,-0.894 -0.50226,0.1815 -0.36807,1.55867 z m -0.88221,-0.42316 -1.16668,-1.92907 -0.38256,0.8078 1.1571,1.22419 z m 0.29149,-0.47084 0.42813,-1.96295 -1.16427,-0.14104 0.43264,2.15154 0.30119,-0.049 z m -0.54259,4.88892 -1.20243,-0.32524 0.24624,1.01601 0.95619,-0.68858 z m 2.45043,-1.68081 -1.20238,-2.06561 -2.70147,1.77168 0.2295,1.36979 1.5253,0.53544 2.1515,-1.60895 z m 0.63357,1.71176 -0.62157,-1.29105 -3.35646,2.13001 3.97803,-0.84123 z m 0.59279,2.37389 -1.46306,-0.0463 -0.0227,0.61432 1.48229,-0.5665 z m -0.15294,-3.63373 -0.93719,-0.25357 0.70522,1.44875 z m -4.20737,2.34036 2.66281,1.8073 0.0263,-0.54262 1.25507,-2.1948 -3.94681,0.93254 z"
       class="fil2" />
    <path
       style="clip-rule:evenodd;opacity:1;fill:#ffffff;fill-rule:nonzero;stroke-width:0.00231729;image-rendering:optimizeQuality;shape-rendering:geometricPrecision;text-rendering:geometricPrecision"
       id="path23"
       d="m 99.466557,136.6817 c -0.0046,0.002 -0.0093,0.005 -0.01159,0.009 -0.0023,0.002 -0.0046,0.005 -0.007,0.007 -0.0046,0.002 -0.0093,0.002 -0.01159,0.005 -0.0093,0.002 -0.01854,0.005 -0.02781,0.009 -0.0093,0.005 -0.01622,0.0139 -0.01622,0.0255 -0.0046,0.005 -0.0093,0.0116 -0.01159,0.0162 -0.0023,0.0139 0.0046,0.0232 0.0139,0.0301 0.0046,0.0162 0.0023,0.0348 -0.0023,0.0579 0,0.002 0,0.007 0,0.009 -0.0046,0.002 -0.007,0.005 -0.0093,0.007 -0.01159,0 -0.03012,0.005 -0.03708,0.0232 -0.0023,0.007 -0.0023,0.0116 0,0.0162 -0.0023,0.002 -0.0023,0.005 -0.0023,0.009 -0.0023,0.007 0,0.0139 0.0046,0.0209 -0.0023,0.002 -0.0023,0.005 -0.0046,0.007 -0.0046,0.009 -0.0139,0.0185 -0.02086,0.0255 -0.007,0.007 -0.01622,0.0162 -0.02085,0.0232 -0.0046,0.007 -0.0046,0.0185 -0.0023,0.0278 -0.0093,0.0116 -0.0139,0.0232 -0.01159,0.0348 -0.007,0.005 -0.0139,0.009 -0.01854,0.0162 -0.0023,0.002 -0.0046,0.007 -0.0046,0.0116 -0.0023,0.002 -0.0023,0.005 -0.0046,0.007 -0.0023,0.005 -0.007,0.0116 -0.0093,0.0209 -0.0023,0 -0.007,-0.002 -0.0093,-0.002 -0.0093,-0.005 -0.02086,-0.005 -0.03012,0.002 -0.0093,0.007 -0.01159,0.0185 -0.0093,0.0301 0,0.002 0,0.002 -0.0046,0.0116 v 0 c -0.0046,-0.002 -0.01159,-0.002 -0.01622,-0.002 -0.01159,0.002 -0.02086,0.0116 -0.02317,0.0255 -0.0023,0.0209 -0.0139,0.0348 -0.03013,0.0348 v 0 c -0.01622,0 -0.03476,-0.0139 -0.04403,-0.0324 -0.0046,-0.009 -0.0139,-0.0139 -0.02549,-0.0139 v 0 c -0.01159,0 -0.02085,0.007 -0.02549,0.0162 l -0.0046,0.0116 c 0,0.002 -0.0023,0.005 -0.0023,0.007 0,0 -0.0023,-0.002 -0.0023,-0.002 -0.0023,-0.002 -0.0023,-0.007 -0.0046,-0.009 0,-0.009 -0.0046,-0.0185 -0.01159,-0.0232 -0.01622,-0.0116 -0.03244,-0.0208 -0.05098,-0.0324 -0.01854,-0.0116 -0.03708,-0.0208 -0.05793,-0.0371 -0.01854,-0.0139 -0.05098,-0.0394 -0.07184,-0.0765 0.0023,-0.002 0.0023,-0.007 0.0023,-0.009 0.0023,-0.0116 -0.0046,-0.0209 -0.0139,-0.0278 0,-0.0185 -0.01159,-0.0324 -0.01854,-0.0417 0.007,-0.007 0.007,-0.0162 0.0046,-0.0255 0,-0.002 -0.0023,-0.005 -0.0023,-0.007 0.0023,-0.007 0.0046,-0.0185 -0.0023,-0.0301 -0.0023,-0.005 -0.0046,-0.007 -0.0093,-0.009 -0.03012,-0.044 -0.02781,-0.095 -0.02086,-0.12282 0.0023,-0.0116 -0.0023,-0.0209 -0.01159,-0.0278 -0.01854,-0.0139 -0.01854,-0.0255 -0.01622,-0.0487 0,-0.0162 0.0023,-0.0348 -0.0046,-0.0556 0.0023,-0.007 0.0023,-0.0139 0,-0.0209 -0.0139,-0.0301 -0.0023,-0.0579 0.01854,-0.0973 0.0093,-0.0185 0.01854,-0.0348 0.02549,-0.0556 0.0093,-0.0139 0.01159,-0.0278 0.0139,-0.0394 0,-0.002 0,-0.002 0,-0.005 0.0046,-0.002 0.0093,-0.005 0.01159,-0.009 0.0093,-0.009 0.0093,-0.0255 0.0046,-0.0348 0,-0.002 0.007,-0.007 0.02549,-0.0162 0.0139,-0.007 0.03476,-0.0185 0.04403,-0.0394 0,0 0.0023,-0.002 0.0023,-0.002 0.0093,-0.007 0.0139,-0.0185 0.01159,-0.0301 0.0023,-0.005 0.0046,-0.0116 0.0046,-0.0185 0,-0.002 0,-0.005 0,-0.007 0.0023,-0.005 0.0023,-0.0116 0,-0.0162 v -0.002 c 0.0023,0 0.007,0 0.007,0 0.01159,0 0.03476,0 0.04866,-0.0185 0.0023,0 0.007,-0.002 0.0093,-0.005 0.03708,0.0208 0.06488,0.002 0.07879,-0.0139 0.0023,0.002 0.007,0.005 0.01159,0.007 0.0139,0.002 0.02549,-0.002 0.03012,-0.0162 0.0023,0 0.007,0 0.0093,0 0.0023,0 0.0046,0 0.007,0 0.0023,0.002 0.0046,0.002 0.007,0.005 0.0046,0.005 0.0093,0.009 0.01622,0.0116 0.01622,0.002 0.03012,0.002 0.04403,0 0.0023,0 0.0046,0 0.0046,0 0.0023,0.005 0.0046,0.007 0.007,0.0116 0.0093,0.009 0.02549,0.009 0.03476,0.002 0.0023,0 0.007,0.005 0.0093,0.007 0.0046,0.005 0.0093,0.009 0.01622,0.0139 0.0023,0.002 0.0046,0.005 0.0046,0.007 0.02317,0.0185 0.04866,0.0348 0.07184,0.051 0.02317,0.0139 0.04866,0.0301 0.06952,0.0487 0,0.002 0,0.007 0.0023,0.009 0,0.002 0.0023,0.005 0.0023,0.007 0,0.002 0,0.005 0,0.007 0.0023,0.0139 0.0139,0.0232 0.02549,0.0301 0,0 0,0.002 0,0.002 0.0023,0.009 0.007,0.0162 0.0139,0.0209 0.0093,0.005 0.01854,0.005 0.02781,0.002 0.007,0.0139 0.01622,0.0255 0.02317,0.0394 0.01159,0.0209 0.02549,0.0417 0.03939,0.0626 -0.0046,0.005 -0.007,0.009 -0.007,0.0162 -0.0023,0.0116 0.0023,0.0232 0.0139,0.0301 0.03939,0.0232 0.03708,0.0556 0.03244,0.1066 -0.007,0.005 -0.0139,0.0116 -0.0139,0.0232 0,0.005 0.0023,0.009 0.0046,0.0139 -0.0023,0 -0.007,0 -0.0093,0 -0.02317,-0.002 -0.04866,-0.005 -0.07415,0.005 z m 0.199287,0.009 c 0,-0.0162 -0.0093,-0.0232 -0.02317,-0.0278 0.0023,-0.007 0.0046,-0.0116 0.0046,-0.0162 0,-0.007 -0.0023,-0.0139 -0.007,-0.0185 v 0 c 0.0046,-0.007 0.007,-0.0162 0.0046,-0.0255 0,0 0,-0.002 0,-0.005 0,-0.002 0,-0.007 -0.0023,-0.009 -0.0023,-0.005 -0.0023,-0.009 -0.0023,-0.0139 -0.0023,-0.0139 -0.0046,-0.0324 -0.02085,-0.0487 0,-0.005 0,-0.007 0,-0.0116 0.007,-0.007 0.0093,-0.0162 0.007,-0.0255 -0.0023,-0.0116 -0.01159,-0.0208 -0.02086,-0.0255 -0.0023,-0.002 -0.007,-0.005 -0.0093,-0.005 -0.01159,-0.0649 -0.04866,-0.12282 -0.08574,-0.17612 -0.0093,-0.0139 -0.01854,-0.0255 -0.02549,-0.0394 -0.0046,-0.007 -0.0139,-0.0139 -0.02317,-0.0139 -0.01622,0 -0.01854,-0.005 -0.03012,-0.0301 -0.007,-0.0162 -0.0139,-0.0371 -0.03244,-0.0533 -0.0023,-0.007 -0.0046,-0.0116 -0.01159,-0.0162 -0.0046,-0.002 -0.0093,-0.005 -0.01622,-0.005 v 0 c -0.0139,0 -0.02549,-0.007 -0.03244,-0.0139 -0.007,-0.009 -0.02085,-0.0139 -0.03244,-0.009 -0.0023,0 -0.0046,0.002 -0.007,0.002 -0.03476,-0.0417 -0.08806,-0.0695 -0.155259,-0.0811 -0.06025,-0.007 -0.120499,0.002 -0.180749,0.0116 l -0.0093,0.002 c -0.164527,0.0394 -0.264171,0.13672 -0.27344,0.25954 -0.0046,0.005 -0.007,0.009 -0.007,0.0162 -0.0023,0.0116 -0.0093,0.0208 -0.01622,0.0324 -0.007,0.0116 -0.01622,0.0255 -0.02085,0.0417 -0.007,0.007 -0.0093,0.0162 -0.0093,0.0255 0.0046,0.0324 -0.0023,0.0626 -0.0093,0.0927 l -0.0046,0.0185 c -0.0093,0.0394 -0.01622,0.0857 0.0046,0.13209 -0.0093,0.0857 0.0046,0.18306 0.03708,0.26185 0,0 -0.0023,0.002 -0.0023,0.005 -0.0023,0.009 -0.0023,0.0185 0.0023,0.0255 0.01622,0.0232 0.02086,0.051 0.02549,0.0834 0.007,0.044 0.01622,0.0927 0.05562,0.12977 0.02086,0.051 0.07184,0.0742 0.108913,0.088 l 0.02317,0.007 c 0.02781,0.009 0.0533,0.0185 0.06952,0.0348 0.007,0.0162 0.01622,0.0255 0.03244,0.0324 0.02086,0.009 0.04866,0.007 0.07879,-0.005 l 0.0139,-0.005 c 0.02317,-0.009 0.02549,-0.009 0.03476,0 0.02781,0.0208 0.05793,0.0301 0.08574,0.0301 0.03708,0 0.07184,-0.0162 0.09733,-0.0371 0.03708,-0.0301 0.06257,-0.0765 0.07647,-0.13904 0.04171,-0.0301 0.05793,-0.0811 0.0672,-0.11587 0.01159,-0.0371 0.02086,-0.0626 0.0533,-0.0857 0.01159,-0.009 0.01622,-0.0255 0.007,-0.0394 0.0023,-0.005 0.0139,-0.0162 0.02317,-0.0232 0.02085,-0.0185 0.05098,-0.0417 0.04866,-0.0788 0,-0.005 -0.0023,-0.007 -0.0023,-0.009 0,-0.005 -0.0023,-0.009 -0.0046,-0.0139 0.0046,-0.005 0.0093,-0.0116 0.01159,-0.0185 0.0023,-0.0185 -0.01159,-0.0278 -0.02781,-0.0348 l 0.0023,-0.002 c 0.007,0.002 0.0139,0 0.01854,0 0.0023,0 0.0093,-0.002 0.0093,-0.002 0.007,0.007 0.01854,0.009 0.02781,0.007 0.0093,-0.002 0.01854,-0.0139 0.02086,-0.0232 h 0.0023 c 0.0023,0.002 0.0093,0.002 0.0139,0.002 0.0046,0 0.0093,0 0.0139,-0.002 0.01159,-0.002 0.02086,-0.0139 0.02086,-0.0278 0,-0.005 -0.0023,-0.007 -0.0023,-0.009 0,-0.002 0.0023,-0.002 0.0023,-0.005 z"
       class="fil1" />
    <path
       style="clip-rule:evenodd;opacity:1;fill:#ffffff;fill-rule:nonzero;stroke-width:0.00231729;image-rendering:optimizeQuality;shape-rendering:geometricPrecision;text-rendering:geometricPrecision"
       id="path25"
       d="m 99.955506,135.02947 c 0.04634,-0.007 0.09269,-0.0139 0.136724,-0.0232 0.002,0.005 0.005,0.009 0.009,0.0139 0,0 0.002,0 0.002,0 l -0.150622,0.009 z m 0.159894,4.50945 c -0.005,-0.002 -0.007,-0.002 -0.0116,-0.005 0.0209,-0.005 0.0417,-0.009 0.0626,-0.0116 -0.0162,0.002 -0.0348,0.009 -0.0487,0.0162 z m 0.18538,-4.6369 c -0.0116,0.002 -0.0255,0.002 -0.0371,0.002 -0.0278,0.002 -0.0602,0.002 -0.0904,0.0185 -0.0116,-0.007 -0.0255,-0.005 -0.0348,-0.007 -0.005,0 -0.009,0 -0.009,0 -0.007,-0.007 -0.0139,-0.0116 -0.0208,-0.0139 -0.009,0 -0.0162,0.002 -0.0232,0.009 -0.002,0.002 -0.005,0.002 -0.007,0.005 -0.005,0.002 -0.0116,0.007 -0.0185,0.0162 -0.09037,-0.005 -0.180745,0.005 -0.266485,0.0139 -0.0672,0.007 -0.134403,0.0139 -0.201604,0.0139 -0.007,0 -0.01159,0.002 -0.01854,0.007 -0.03244,0.0278 -0.07647,0.0209 -0.122817,0.0139 -0.03012,-0.005 -0.06488,-0.009 -0.09733,-0.005 0,0 0,0 0,0 -0.0093,-0.005 -0.01854,-0.005 -0.02781,0 0,0 -0.0023,0 -0.0023,0 -0.02549,0.0139 -0.06257,0.0185 -0.09037,0.0139 -0.0093,-0.002 -0.01622,0 -0.02317,0.007 l -0.01854,0.0162 c -0.129768,-0.0232 -0.259537,-0.0185 -0.38467,-0.0116 -0.08342,0.002 -0.169162,0.007 -0.252585,0.002 -0.04866,0 -0.09733,-0.002 -0.145989,-0.005 -0.07184,-0.002 -0.141355,-0.007 -0.208556,-0.005 -0.0672,0 -0.122817,0.005 -0.176114,0.0116 -0.03708,0.005 -0.06488,0.0116 -0.09037,0.0185 l -0.03244,0.0116 c -0.0046,-0.002 -0.01159,-0.002 -0.01854,0 0,0 -0.0023,0 -0.0023,0 0,-0.0139 0.0023,-0.0255 0,-0.0394 v 0 c 0.0046,-0.009 0.0023,-0.0185 -0.0023,-0.0278 -0.0023,-0.005 -0.007,-0.0278 -0.0093,-0.0417 -0.0023,-0.0185 -0.0046,-0.0371 -0.007,-0.0603 -0.0023,-0.0394 -0.0023,-0.0811 -0.0023,-0.12282 0,-0.0765 0,-0.16453 -0.02549,-0.24795 0,-0.0371 0,-0.0718 0,-0.10659 0.09733,0 0.236364,-0.005 0.373084,-0.0139 0,0 0.0023,0.002 0.0023,0.002 0.007,0.007 0.0139,0.009 0.02317,0.007 0.07879,-0.0116 0.157576,-0.002 0.238681,0.009 0.07415,0.009 0.152941,0.0185 0.231729,0.0116 0.0811,0.0116 0.164527,-0.002 0.234046,-0.0139 0.01854,0.0139 0.04171,0.0232 0.06488,0.0232 0.01159,0 0.02086,-0.002 0.03012,-0.005 0.02549,-0.007 0.04866,-0.0255 0.07184,-0.0417 0.02781,0 0.06257,0 0.09501,0.007 0.02317,0.0116 0.04866,0.0162 0.07415,0.0162 0.02086,0 0.04171,-0.002 0.06025,-0.007 0.0093,0.009 0.02317,0.0185 0.03939,0.0185 0.0046,0 0.01159,0 0.01622,-0.002 0.0023,0 0.0046,-0.002 0.007,-0.005 0.0046,0.002 0.0093,0.005 0.0139,0.005 v 0 c 0.007,0 0.01159,-0.002 0.01622,-0.005 0,0.005 0,0.007 0,0.009 -0.0046,0.007 -0.0046,0.0139 -0.0023,0.0209 0.0046,0.0116 0.01854,0.0232 0.03244,0.0232 h 0.0046 c 0.0093,-0.002 0.03476,-0.0116 0.03244,-0.0556 v -0.0208 c 0,-0.007 0,-0.0116 0,-0.0162 0.0139,0.002 0.02549,0.005 0.03939,0.0116 0.199286,0.0857 0.396256,0.0371 0.58396,-0.0116 l 0.0162,-0.005 c 0.0672,0.009 0.13672,0.007 0.19929,0.002 0.0324,-0.002 0.1205,-0.0116 0.19928,-0.0116 -0.002,0.0579 -0.0116,0.10891 -0.0232,0.14367 -0.002,0.007 -0.002,0.0139 0,0.0209 0.0162,0.0371 0.002,0.0788 -0.0162,0.12513 -0.0162,0.044 -0.0324,0.0881 -0.0255,0.13441 0,0.005 0.002,0.007 0.002,0.009 0,0.0209 0.0139,0.0394 0.0208,0.051 v 0 c -0.0185,0.009 -0.0208,0.0255 -0.0208,0.0325 0,0.009 0.005,0.0162 0.009,0.0208 -0.0116,0.007 -0.0185,0.0209 -0.0232,0.0348 -0.002,0 -0.005,0 -0.007,0 -0.002,-0.005 -0.007,-0.0116 -0.0116,-0.0139 -0.0301,-0.0139 -0.0533,0 -0.0695,0.009 0,0 -0.002,0.002 -0.002,0.002 -0.005,-0.005 -0.009,-0.009 -0.0162,-0.0139 -0.0116,-0.005 -0.0232,-0.002 -0.0278,0 -0.002,0 -0.005,-0.002 -0.005,-0.002 -0.002,0 -0.005,0 -0.009,0 z m -0.23173,0.31515 c 0,0.002 -0.002,0.002 -0.002,0.002 -0.005,0.0116 -0.002,0.0208 0,0.0278 0.0139,0.0556 0.0185,0.13209 0.0116,0.19002 0,0.005 0,0.009 0.002,0.0139 l 0.0208,0.0487 c -0.0301,0.23868 -0.0278,0.48663 -0.0278,0.72299 0,0.15758 0,0.31979 -0.007,0.47737 -0.002,0.0904 -0.007,0.17843 -0.0116,0.26648 -0.0162,0.34296 -0.0301,0.66738 0.0232,1.01498 -0.005,0.005 -0.007,0.0116 -0.007,0.0185 0.005,0.0626 0.002,0.12282 0,0.18075 -0.002,0.0556 -0.005,0.11123 0,0.16917 -0.005,0.005 -0.005,0.0116 -0.005,0.0185 0.0232,0.14599 0.0209,0.29893 0.0185,0.44956 -0.002,0.15526 -0.002,0.31747 0.0232,0.46346 l -0.002,0.1205 c -0.0857,0.005 -0.17148,0.009 -0.273441,0.0162 l -0.101961,0.007 c -0.04403,0.002 -0.09269,0.005 -0.143672,0.009 h -0.0046 c 0,-0.002 0,-0.005 0,-0.007 0,-0.0139 0,-0.0325 -0.01159,-0.051 0.0023,-0.002 0.0023,-0.007 0.0023,-0.0116 0.007,-0.005 0.01159,-0.0139 0.0139,-0.0232 0.0023,-0.0116 -0.007,-0.0232 -0.01622,-0.0278 -0.0023,-0.002 -0.0046,-0.005 -0.007,-0.007 0.0046,-0.0463 0,-0.0927 -0.0046,-0.13672 -0.0046,-0.0371 -0.007,-0.0695 -0.007,-0.10428 0,-0.009 -0.0046,-0.0185 -0.01159,-0.0232 -0.0139,-0.0116 -0.0139,-0.0162 -0.0046,-0.0464 0.0046,-0.0162 0.01159,-0.0348 0.01159,-0.0556 0.0046,-0.009 0.0046,-0.0232 -0.0046,-0.0324 -0.007,-0.009 -0.01159,-0.0209 -0.007,-0.0301 0.0046,-0.0116 0,-0.0255 -0.0093,-0.0324 l -0.0046,-0.005 c 0.02317,-0.0672 0.02317,-0.13208 0.02086,-0.19697 0,-0.0463 0,-0.0904 0.007,-0.13672 l 0.0139,-0.12513 c 0.0046,-0.0487 0.0093,-0.0996 0.01159,-0.14831 0,-0.007 -0.0023,-0.0162 -0.007,-0.0209 -0.0046,-0.005 -0.01159,-0.009 -0.02085,-0.009 -0.0533,-0.002 -0.106596,0 -0.159893,0.005 -0.02781,0.005 -0.0533,0.009 -0.07879,0.0139 -0.0139,0.002 -0.02549,0.007 -0.03476,0.0116 -0.0046,-0.002 -0.01159,-0.002 -0.01622,0 -0.0139,0.005 -0.04171,0.002 -0.06025,0 -0.01159,-0.002 -0.02317,-0.002 -0.03012,-0.002 -0.0023,0 -0.0046,0 -0.007,0 -0.01159,0 -0.02085,0.005 -0.02549,0.0139 -0.007,0.002 -0.03244,0.007 -0.106595,0.005 -0.07184,-0.002 -0.120499,0.005 -0.150624,0.0232 l -0.06025,-0.002 c -0.007,0.002 -0.01622,0.002 -0.02085,0.007 -0.0046,0.005 -0.0093,0.0116 -0.0093,0.0209 0,0.0417 0,0.22014 0.0046,0.27112 0,0.0162 0,0.0533 0.0023,0.095 0,0.0695 0,0.11354 0.0023,0.14135 -0.0046,0.005 -0.007,0.0116 -0.007,0.0185 0,0.005 0,0.007 0.0023,0.009 -0.0093,0.0232 -0.03012,0.0649 -0.01854,0.1205 -0.01159,0.0487 0.007,0.0857 0.02085,0.11586 0.0139,0.0278 0.02317,0.0487 0.0139,0.0811 -0.03708,0.0417 -0.0093,0.0834 0.0046,0.10659 0.01622,0.0278 0.01622,0.0278 0.0046,0.0394 -0.03939,0.0487 -0.0533,0.0811 -0.05098,0.14599 0,0.007 0.0023,0.0139 0.0023,0.0185 -0.134403,-0.002 -0.261854,-0.005 -0.393939,0.0116 -0.04403,-0.002 -0.09501,-0.002 -0.141355,0 -0.0023,-0.0162 -0.007,-0.0301 -0.0093,-0.0463 -0.0046,-0.0232 -0.01159,-0.0487 -0.0139,-0.0811 l -0.02549,-0.19002 c -0.0093,-0.11818 -0.02086,-0.25026 -0.007,-0.37308 0.02781,-0.10196 0.01159,-0.21551 -0.0046,-0.32674 -0.01622,-0.10891 -0.03012,-0.21087 -0.0046,-0.29661 0.08342,-0.35918 0.03476,-0.70214 -0.01622,-1.06364 l -0.007,-0.0394 c 0.0139,-0.15063 0.0046,-0.30357 -0.0023,-0.45187 -0.0093,-0.19234 -0.01854,-0.3754 0.01622,-0.55847 0,-0.005 0,-0.009 0,-0.0116 -0.02086,-0.0811 -0.0046,-0.16684 0.0139,-0.25953 0.0139,-0.0765 0.03012,-0.15526 0.02549,-0.23637 0,-0.005 -0.0023,-0.009 -0.0046,-0.0139 0.0046,-0.0301 -0.007,-0.0602 -0.01622,-0.0834 -0.0093,-0.0209 -0.01159,-0.0324 -0.01159,-0.0394 0.007,0 0.01159,-0.005 0.01622,-0.009 0.03476,-0.0371 -0.0046,-0.0788 -0.02317,-0.095 -0.0023,-0.002 -0.007,-0.005 -0.0093,-0.009 0.0023,-0.005 0.0023,-0.009 0.0023,-0.0139 0,-0.005 -0.0023,-0.007 -0.0023,-0.0116 0.007,-0.007 0.0093,-0.0162 0.0093,-0.0232 0,-0.005 0,-0.007 0,-0.0116 0,-0.005 -0.0023,-0.009 -0.0046,-0.0116 l 0.0023,-0.002 c 0.007,-0.007 0.0093,-0.0162 0.01159,-0.0255 0.0093,0.005 0.01622,0.007 0.02086,0.007 0,0 0.0023,0 0.0023,0 0.02317,-0.002 0.03708,-0.0232 0.04866,-0.0394 0,-0.002 0.0023,-0.005 0.0046,-0.005 0,0 0.0023,0 0.0023,0 0,0 0,0.002 0,0.002 0.007,0.005 0.01622,0.007 0.02549,0.007 0.0046,0 0.01159,-0.002 0.01854,-0.005 0.0023,0.009 0.0093,0.0162 0.01854,0.0209 0.03708,0.0116 0.06952,0.002 0.09733,-0.007 0.01622,-0.005 0.03012,-0.009 0.04171,-0.009 0,0.002 0,0.002 0,0.002 0.0046,0.009 0.01159,0.0162 0.02086,0.0162 0.01159,0.002 0.02781,0.005 0.03939,-0.005 0.007,0.005 0.0139,0.009 0.02085,0.007 0.02317,-0.002 0.04866,-0.002 0.07184,-0.002 0.05793,0 0.118182,0 0.173797,-0.0185 0.01854,0.0116 0.04171,0.0116 0.06257,0.0116 0.01854,0 0.03939,0 0.04635,0.007 0.0093,0.007 0.02085,0.009 0.03244,0.005 0.0046,-0.002 0.01159,-0.005 0.01854,-0.007 0.01159,-0.002 0.02317,-0.007 0.03476,-0.0162 0.17148,0.009 0.349911,0.002 0.521391,-0.002 0.122816,-0.005 0.24795,-0.009 0.373083,-0.007 0.007,0 0.007,0 0.0093,-0.002 0.03708,-0.0139 0.07647,-0.0209 0.125134,-0.0209 0.02782,0 0.05098,0.002 0.07416,0.007 -0.002,0.0116 -0.002,0.0209 -0.002,0.0325 0,0.0139 0,0.0255 0,0.044 z m -1.144738,3.46435 v 0 c 0.0093,-0.0255 0.0023,-0.0487 -0.0046,-0.0672 0,0 0,-0.002 0,-0.002 0.0023,-0.002 0.0046,-0.002 0.007,-0.005 0.007,-0.005 0.0093,-0.0139 0.0093,-0.0232 0,-0.005 0,-0.007 -0.0023,-0.0116 0.0046,-0.007 0.01159,-0.0185 0.007,-0.0348 -0.0023,-0.002 -0.0023,-0.005 -0.0046,-0.007 v 0 c -0.01854,-0.0649 -0.01854,-0.0927 -0.01159,-0.11586 0.0023,-0.009 0.0023,-0.0162 -0.0023,-0.0255 v 0 c 0.01622,0 0.03244,-0.002 0.04635,-0.0116 0.007,0 0.0139,0 0.01854,-0.005 0.03244,-0.0185 0.06952,-0.0139 0.11123,-0.007 0.02781,0.005 0.05793,0.009 0.08806,0.007 0.02086,0.002 0.03939,-0.002 0.0533,-0.005 0.0023,0 0.0046,0 0.007,-0.002 0.0023,0.005 0.007,0.007 0.0139,0.009 0.01159,0.005 0.02317,0 0.03012,-0.007 0.0046,-0.005 0.0139,-0.0139 0.03708,0.002 l 0.007,0.005 c 0.02085,0.0116 0.03708,0.0162 0.06025,0.007 0.0023,0 0.0046,0.002 0.007,0.002 0.0093,0 0.01622,-0.002 0.02317,-0.009 v 0 c 0.0023,0 0.007,0 0.0093,0 v 0 l -0.0046,0.0116 c -0.0046,0.0139 -0.01622,0.0348 -0.0093,0.0533 -0.0023,0.005 -0.0023,0.0116 0,0.0162 -0.04171,0.0371 -0.02317,0.0811 -0.01159,0.10428 v 0.002 c -0.0046,0.002 -0.0093,0.007 -0.01159,0.0139 -0.0046,0.0116 0,0.0278 0.0093,0.0348 0,0.002 0,0.0116 0,0.0162 0,0.005 -0.0023,0.0116 -0.0023,0.0162 -0.0023,0.002 -0.0023,0.005 -0.0046,0.007 0,0.002 0,0.002 -0.0023,0.005 -0.0046,0.005 -0.007,0.0116 -0.007,0.0185 0,0.0232 0.007,0.044 0.01159,0.0649 0,0.002 0,0.005 0.0023,0.005 -0.0046,0.002 -0.0093,0.007 -0.01159,0.0139 -0.0046,0.0116 -0.0023,0.0255 0.0093,0.0324 0.007,0.005 0.007,0.007 0.0046,0.0278 -0.0023,0.009 -0.0046,0.0185 -0.0023,0.0301 -0.0023,0.002 -0.0023,0.007 -0.0023,0.0116 -0.0046,0.0602 0.0093,0.11355 0.02317,0.16684 0.0046,0.0162 0.0093,0.0324 0.01159,0.0487 -0.0023,0.002 -0.0023,0.005 -0.0046,0.009 0,0.002 0,0.005 0,0.007 -0.0023,0.002 -0.0023,0.007 -0.0046,0.009 -0.0046,0.0162 0,0.0301 0.007,0.044 0,0.002 -0.0023,0.002 -0.0023,0.005 -0.0023,0.009 -0.0023,0.0162 0.0046,0.0232 0.007,0.009 0.01622,0.0139 0.02549,0.0162 v 0.005 c 0.007,0.044 0.01159,0.0904 0.02549,0.1344 -0.0046,0.002 -0.0093,0.007 -0.01159,0.0116 -0.0046,0.0116 -0.0023,0.0232 0.0046,0.0324 0.02317,0.0232 0.02781,0.044 0.02549,0.0742 -0.02549,0.002 -0.05098,0.002 -0.07184,0.005 0,-0.002 -0.0023,-0.002 -0.0023,-0.002 h -0.0023 v 0 0 c -0.0023,-0.002 -0.0046,-0.002 -0.007,-0.002 -0.0023,0 -0.0046,-0.002 -0.007,-0.002 -0.007,-0.002 -0.01159,0 -0.01854,0.002 -0.0046,-0.005 -0.0093,-0.009 -0.01622,-0.009 -0.0139,-0.002 -0.02317,0.007 -0.02781,0.0139 -0.02085,0.007 -0.04635,0.007 -0.07184,0.009 h -0.01159 c -0.0046,0 -0.0093,0.002 -0.01159,0.005 h -0.007 c -0.0046,-0.005 -0.0093,-0.0116 -0.0139,-0.0139 -0.0046,-0.0116 -0.0139,-0.0255 -0.03244,-0.0278 -0.007,0 -0.0139,0.002 -0.01854,0.005 -0.0046,-0.002 -0.0093,-0.002 -0.01622,-0.002 -0.007,0 -0.01622,0.005 -0.02085,0.0116 -0.0023,0 -0.0046,0 -0.007,0 -0.0046,-0.002 -0.0093,-0.005 -0.0139,-0.005 -0.0139,0 -0.03012,-0.005 -0.04866,-0.009 -0.01622,-0.005 -0.03012,-0.009 -0.04403,-0.009 -0.01159,-0.002 -0.02085,0.005 -0.02549,0.0139 0,0 -0.0046,0 -0.007,-0.002 -0.007,-0.002 -0.01622,-0.002 -0.02549,-0.002 0,-0.002 -0.0023,-0.005 -0.0046,-0.005 -0.0023,-0.002 -0.0046,-0.005 -0.007,-0.005 -0.0023,-0.009 -0.007,-0.0185 -0.01622,-0.0208 0,0 -0.0023,0 -0.0023,0 -0.0023,-0.002 -0.0023,-0.005 -0.0023,-0.005 -0.0046,-0.009 -0.0093,-0.0162 -0.01159,-0.0255 -0.0046,-0.0162 -0.007,-0.0324 -0.0046,-0.051 0.0023,-0.0324 0.01622,-0.0695 0.04171,-0.10891 0.0046,-0.007 0.007,-0.0162 0.0046,-0.0232 -0.0023,-0.007 -0.007,-0.0139 -0.0139,-0.0185 -0.01159,-0.005 -0.02781,-0.0116 -0.04403,-0.0162 0.0046,-0.002 0.01159,-0.007 0.0139,-0.0116 0.0023,-0.007 0.0046,-0.0116 0.0023,-0.0185 0.0046,-0.005 0.0093,-0.0116 0.0093,-0.0208 0.007,-0.005 0.01159,-0.0116 0.0139,-0.0209 0.007,-0.0649 -0.007,-0.13209 -0.01854,-0.19465 -0.0093,-0.051 -0.02085,-0.10196 -0.02085,-0.15063 0.0023,-0.002 0.0046,-0.002 0.007,-0.005 0.007,-0.009 0.007,-0.0255 0,-0.0348 z m 1.072905,-6.32389 c 0,0 0.0023,0 0.0023,0 0,0.002 0.0023,0.002 0.0046,0.005 0.007,0.007 0.0185,0.009 0.0278,0.005 l -0.007,0.0185 c -0.005,0.0139 -0.007,0.0301 -0.002,0.0417 0,0.002 -0.002,0.007 -0.002,0.009 0,0.009 0.005,0.0185 0.0139,0.0232 0.002,0.005 0.005,0.0116 0.009,0.0162 0.002,0.002 0.005,0.002 0.007,0.005 0.002,0.005 0.007,0.009 0.0116,0.0116 0.005,0.002 0.007,0.005 0.009,0.005 -0.002,0.002 -0.005,0.007 -0.005,0.009 -0.007,0.0116 -0.0209,0.0324 -0.0162,0.0579 -0.002,0.007 -0.002,0.0139 0.002,0.0209 -0.0417,0.0371 -0.0232,0.0765 -0.0139,0.0996 -0.002,0.002 -0.005,0.002 -0.005,0.002 -0.005,0.007 -0.005,0.0162 -0.002,0.0255 l -0.0116,0.0116 c -0.005,0.005 -0.007,0.0116 -0.007,0.0185 v 0.005 c -0.002,0.002 -0.007,0.002 -0.009,0.002 0,0 -0.002,0 -0.002,0 -0.0046,-0.007 -0.01159,-0.0116 -0.02085,-0.0139 -0.01159,-0.002 -0.02086,0.005 -0.02549,0.0162 -0.0023,0 -0.0093,0 -0.0139,-0.002 -0.0093,-0.002 -0.02086,-0.005 -0.03244,-0.002 -0.0023,-0.002 -0.007,-0.002 -0.0093,-0.002 -0.05793,-0.005 -0.113548,0.009 -0.166845,0.0255 -0.0139,0.005 -0.03012,0.009 -0.04403,0.0116 0,0 0,0 0,0 -0.007,-0.005 -0.0139,-0.005 -0.02086,-0.005 -0.0023,-0.002 -0.0046,-0.002 -0.007,-0.002 -0.01622,-0.005 -0.03012,0 -0.04403,0.007 -0.0023,0 -0.0023,-0.002 -0.0046,-0.002 -0.007,-0.002 -0.01622,0 -0.02317,0.005 -0.0093,0.007 -0.0139,0.0162 -0.01622,0.0255 -0.04403,0.007 -0.09038,0.0116 -0.13672,0.0278 -0.0023,-0.005 -0.007,-0.009 -0.0139,-0.0116 -0.01159,-0.005 -0.02317,-0.002 -0.03244,0.007 -0.02549,0.0255 -0.05098,0.0301 -0.08806,0.0232 0.007,-0.0255 0.01622,-0.0533 0.03708,-0.0834 0.0046,-0.007 0.0046,-0.0162 0.0046,-0.0232 -0.0023,-0.007 -0.007,-0.0139 -0.0139,-0.0185 -0.0093,-0.005 -0.02781,-0.0116 -0.04403,-0.0162 0.0046,-0.002 0.0093,-0.007 0.0139,-0.0116 0.0046,-0.007 0.0046,-0.0116 0.0046,-0.0185 0.0046,-0.005 0.007,-0.0116 0.0093,-0.0208 0.0046,-0.002 0.007,-0.007 0.0093,-0.0116 0.0023,-0.002 0.0023,-0.007 0.0023,-0.0116 v 0 0 c 0,0 0,-0.002 0,-0.005 0.0046,-0.0579 -0.0046,-0.11587 -0.0139,-0.16453 -0.0023,-0.0162 -0.0046,-0.0255 -0.0093,-0.0371 -0.0023,-0.007 -0.0046,-0.0116 -0.007,-0.0208 0,-0.002 -0.0023,-0.007 -0.0023,-0.009 0,0 0.0046,0 0.0046,-0.002 0,0 0.0023,0 0.0023,0 0.01159,0.002 0.02085,0 0.02781,-0.002 0.0046,0.007 0.0139,0.009 0.02086,0.0116 0.0046,0 0.0093,0 0.0139,-0.002 0.007,0.005 0.01854,0.0116 0.03244,0.007 0.0023,0 0.0046,-0.002 0.007,-0.005 0,0 0.0023,0 0.0023,0 0.05793,-0.0208 0.106595,-0.0185 0.16221,-0.009 0.0093,0.002 0.01854,-0.002 0.02549,-0.009 0.01854,-0.0208 0.05098,-0.0208 0.08111,-0.0208 0.02317,0 0.04635,0 0.06257,-0.0116 0.007,-0.002 0.01159,-0.007 0.0139,-0.0139 0.01854,-0.002 0.06488,0.002 0.09269,0.007 0.03939,0.005 0.07647,0.009 0.104278,0.007 0.01854,0.002 0.03476,-0.002 0.0533,-0.005 z m -1.059002,1.70785 c 0.0023,-0.0116 0,-0.0232 -0.0023,-0.0325 0.007,-0.005 0.0093,-0.0139 0.01159,-0.0232 0,-0.002 0,-0.005 0,-0.005 0.0046,-0.007 0.007,-0.0162 0.0046,-0.0232 -0.0023,-0.009 -0.007,-0.0162 -0.01622,-0.0185 -0.0023,-0.002 -0.0023,-0.002 -0.0023,-0.002 0.007,-0.005 0.01159,-0.009 0.01622,-0.0139 0.0046,-0.009 0.0046,-0.0185 0,-0.0255 0,0 0,-0.002 0,-0.002 0.0093,-0.007 0.02317,-0.0139 0.03244,-0.0301 0.007,-0.002 0.01159,-0.009 0.0139,-0.0162 0.0046,-0.0162 0.01622,-0.0208 0.04403,-0.0278 0.01622,-0.005 0.03708,-0.009 0.0533,-0.0208 0.0093,-0.005 0.01622,-0.009 0.02317,-0.0139 0.0023,0 0.007,0 0.0093,0 0.01159,-0.002 0.01854,-0.009 0.02317,-0.0185 0.0046,0.007 0.0139,0.0116 0.02549,0.0139 h 0.0023 c 0,0 0.0023,0 0.0023,0 0.0093,0.005 0.01622,0.002 0.02317,0 0.0023,0 0.0046,0 0.007,-0.002 0.007,-0.002 0.0093,-0.007 0.0139,-0.009 0.0046,0.009 0.0093,0.0209 0.02317,0.0278 0.0023,0 0.0046,0.002 0.007,0.002 0,0.0116 0.0023,0.0255 0.0139,0.0371 0.01159,0.0116 0.02317,0.0139 0.03476,0.0139 v 0 c 0.0023,0.005 0.0046,0.007 0.007,0.0116 0.0093,0.009 0.02085,0.009 0.03012,0.007 0,0 0,0 0.0023,0.002 0,0.002 0.0023,0.005 0.0046,0.009 0.0023,0.007 0.0046,0.0116 0.0093,0.0162 0.0093,0.007 0.01854,0.009 0.02781,0.0116 v 0.002 c 0.0046,0.009 0.01622,0.0162 0.02549,0.0162 -0.0023,0.0255 0.0046,0.0463 0.0139,0.0672 0.0046,0.0116 0.0093,0.0209 0.0139,0.0324 0.0023,0.005 0.0046,0.007 0.0046,0.0116 0,0.002 -0.0023,0.005 -0.0023,0.007 0,0 0,0.002 0,0.005 -0.0023,0.002 -0.0023,0.005 -0.0023,0.007 -0.0023,0.0116 0,0.0208 0.0046,0.0301 -0.0023,0.0116 0.0023,0.0209 0.01159,0.0278 0.0046,0.005 0.0139,0.007 0.02086,0.007 0.0046,0.0209 0.0093,0.0417 0.01854,0.0649 -0.0046,0.005 -0.007,0.009 -0.0093,0.0139 -0.0023,0.009 0,0.0162 0.0046,0.0232 -0.01854,-0.002 -0.03708,-0.007 -0.0533,-0.0116 0,0 0,0 0,0 -0.0093,-0.009 -0.02086,-0.0116 -0.03244,-0.007 v 0 c -0.01622,-0.005 -0.03476,-0.009 -0.05098,-0.0139 -0.0093,-0.002 -0.01622,0 -0.02549,0.005 -0.0046,-0.002 -0.0093,-0.005 -0.0139,-0.005 -0.007,-0.002 -0.01159,0 -0.01622,0.002 -0.0023,0 -0.0046,0 -0.0046,0 -0.0093,0 -0.0139,0.005 -0.01854,0.009 -0.0023,0 -0.0046,0 -0.0046,0 -0.0046,0 -0.0139,-0.005 -0.02085,-0.007 -0.0093,-0.005 -0.02086,-0.009 -0.03244,-0.0116 -0.0093,0 -0.01854,0.005 -0.02549,0.0116 -0.007,-0.002 -0.01622,0 -0.02549,0.005 -0.0023,0 -0.0046,0.002 -0.0046,0.002 -0.007,-0.002 -0.0139,-0.002 -0.02086,-0.002 -0.0046,0 -0.0093,0 -0.0139,0.002 -0.0023,0 -0.0023,0 -0.0046,0 -0.007,0.002 -0.0139,0.005 -0.02086,0.007 h -0.0023 c -0.0023,-0.002 -0.0023,-0.005 -0.0046,-0.007 -0.0046,-0.0116 -0.01854,-0.0162 -0.02781,-0.0162 -0.01159,0 -0.02317,0.007 -0.02549,0.0185 0,0 -0.0046,0.002 -0.007,0.005 0,0 -0.0023,0 -0.0023,0.002 -0.0046,-0.005 -0.0093,-0.009 -0.0139,-0.009 -0.01159,-0.002 -0.02086,0 -0.02781,0.009 -0.0023,-0.005 -0.0023,-0.007 -0.007,-0.0116 -0.0046,-0.005 -0.0139,-0.007 -0.02086,-0.007 -0.0023,-0.002 -0.0046,-0.005 -0.0046,-0.007 -0.0023,-0.005 -0.007,-0.009 -0.0093,-0.0162 -0.007,-0.0255 -0.01622,-0.051 -0.01854,-0.0742 0.0046,-0.002 0.007,-0.007 0.0093,-0.0116 0.0046,-0.009 0.0023,-0.0185 0,-0.0255 z m 1.728695,0.50285 c 0,-0.0139 -0.005,-0.0255 -0.0116,-0.0348 0.009,-0.007 0.0162,-0.0209 0.009,-0.0324 -0.002,-0.007 -0.009,-0.0139 -0.0162,-0.0162 0,-0.005 0,-0.0116 0,-0.0162 0.002,-0.0185 0.005,-0.0463 -0.005,-0.0672 0.005,-0.005 0.009,-0.0116 0.009,-0.0208 0,-0.044 0.005,-0.095 0.009,-0.14599 0,-0.0162 -0.009,-0.0301 -0.0255,-0.0301 -0.0556,-0.005 -0.11123,-0.009 -0.15989,-0.0116 -0.005,0 -0.007,0 -0.0116,0.002 -0.0162,0.007 -0.0348,0.0116 -0.0556,0.0116 -0.0185,0 -0.0417,0 -0.051,-0.002 -0.0208,-0.002 -0.051,-0.005 -0.0788,0.0185 -0.0278,-0.0116 -0.0672,-0.0232 -0.10428,-0.0116 -0.002,0 -0.007,-0.002 -0.009,0 -0.0394,0.002 -0.0857,0.005 -0.12282,0.0232 -0.0116,-0.0185 -0.0255,-0.0255 -0.0394,-0.0301 -0.0046,-0.002 -0.007,-0.002 -0.01159,-0.005 -0.0093,-0.007 -0.02549,-0.009 -0.03476,0 -0.01159,0.009 -0.03476,0.0116 -0.06025,0.0162 -0.01854,0.002 -0.04171,0.007 -0.06257,0.0116 -0.007,-0.002 -0.0139,-0.005 -0.02317,-0.005 v 0 c -0.0023,-0.005 -0.007,-0.009 -0.01159,-0.0116 -0.007,-0.005 -0.01854,-0.005 -0.02781,0 -0.0533,0.0255 -0.118182,0.0371 -0.190018,0.0371 0,-0.002 0,-0.007 -0.0023,-0.009 0.007,-0.005 0.0093,-0.0139 0.0093,-0.0232 0,-0.0139 -0.0093,-0.0255 -0.02317,-0.0278 v 0 c 0.0023,-0.0255 -0.0023,-0.0533 -0.007,-0.0765 -0.0046,-0.0208 -0.007,-0.0394 -0.007,-0.0579 0,-0.0116 -0.007,-0.0232 -0.01622,-0.0278 -0.0023,0 -0.0023,0 -0.0023,0 0,-0.002 0,-0.005 0,-0.005 0.0046,-0.005 0.007,-0.0139 0.01159,-0.0232 0.0023,-0.009 0.0023,-0.0162 0.0023,-0.0232 0.0046,-0.007 0.007,-0.0162 0.0023,-0.0255 0,-0.002 -0.0046,-0.005 -0.0046,-0.005 -0.0023,-0.002 -0.0023,-0.005 -0.0023,-0.005 -0.0093,-0.007 -0.007,-0.0116 -0.007,-0.0139 0.0023,-0.007 0.0023,-0.0162 -0.0023,-0.0232 -0.0023,-0.005 -0.0046,-0.007 -0.0093,-0.009 0.0023,-0.007 0.0023,-0.0162 -0.0023,-0.0232 -0.02085,-0.0324 -0.06488,-0.0602 -0.104278,-0.0834 l -0.0139,-0.007 c -0.02086,-0.0116 -0.04171,-0.0232 -0.06025,-0.044 -0.0093,-0.007 -0.01622,-0.0139 -0.02317,-0.0208 0,0 -0.0023,-0.002 -0.0023,-0.002 0,-0.002 0.0023,-0.002 0.0023,-0.002 0.0023,-0.0139 -0.0046,-0.0232 -0.0139,-0.0301 -0.0093,-0.0232 -0.0093,-0.0533 -0.0093,-0.0811 v -0.0116 c 0,-0.007 -0.0023,-0.0116 -0.007,-0.0162 0.007,-0.007 0.01159,-0.0139 0.01622,-0.0208 0.01159,-0.005 0.02781,-0.0139 0.02781,-0.0324 0,-0.007 -0.0023,-0.0139 -0.0046,-0.0185 0.0023,-0.005 0.0023,-0.009 0.0023,-0.0162 0,-0.007 -0.007,-0.0162 -0.0139,-0.0209 0,-0.002 0,-0.005 0,-0.007 0.0023,-0.005 0.0023,-0.007 0.0023,-0.0116 0,-0.0139 0.0046,-0.0301 0.0093,-0.044 0.0046,-0.0162 0.0093,-0.0324 0.0093,-0.0463 0,-0.0116 -0.0046,-0.0185 -0.0139,-0.0232 0,-0.002 0,-0.005 0,-0.007 0.0023,-0.0116 0.007,-0.0348 -0.01159,-0.0533 0.007,-0.0139 0.0139,-0.0348 0.007,-0.0533 0,-0.002 0,-0.005 0,-0.007 -0.0023,-0.0139 -0.0046,-0.0348 -0.0139,-0.0556 0.007,-0.005 0.0139,-0.0116 0.02086,-0.0208 0.007,-0.005 0.01159,-0.0139 0.01159,-0.0232 0,-0.009 -0.0046,-0.0185 -0.01159,-0.0232 -0.0046,-0.002 -0.007,-0.0116 -0.0093,-0.0232 -0.0023,-0.007 -0.0046,-0.0162 -0.0093,-0.0255 v -0.002 c 0.007,-0.002 0.01159,-0.009 0.0139,-0.0139 0.0046,-0.009 0.0023,-0.0209 -0.0046,-0.0301 -0.01159,-0.0116 -0.01854,-0.0255 -0.02549,-0.0394 0.0046,0 0.0093,0 0.01159,0 0.0046,0 0.0093,-0.002 0.01622,-0.002 0.0139,0 0.03013,0 0.04866,-0.0116 0.0046,0.002 0.007,0.002 0.01159,0.002 0.0046,0.007 0.0139,0.0116 0.02317,0.0116 0,0 0.0023,0 0.0023,0 0.0093,0 0.02085,-0.007 0.02549,-0.0162 0.0023,-0.002 0.0046,-0.005 0.007,-0.007 0.04635,0.005 0.09269,0 0.13672,-0.007 0.03476,-0.005 0.06952,-0.009 0.104278,-0.007 0.0093,0 0.01854,-0.005 0.02317,-0.0116 0.0093,-0.0139 0.01622,-0.0139 0.04635,-0.005 0.01622,0.005 0.03708,0.0116 0.05793,0.0116 0.0093,0.005 0.02086,0.002 0.03012,-0.005 0.0093,-0.007 0.02086,-0.0116 0.03012,-0.009 0.01159,0.005 0.02549,0 0.03244,-0.0116 0.01159,0.007 0.02317,0.009 0.04866,0.0116 0.04403,0.005 0.07879,0.005 0.07879,0.005 v 0 c 0.007,0 0.0139,-0.002 0.0209,-0.009 0.005,-0.005 0.007,-0.0116 0.007,-0.0209 v -0.0463 c 0.005,0 0.007,0 0.0116,-0.002 0.0116,-0.005 0.0162,-0.0185 0.0139,-0.0301 0,-0.005 0,-0.009 -0.002,-0.0139 -0.002,-0.005 -0.002,-0.009 0,-0.0185 0,-0.005 0,-0.007 0.002,-0.0116 0.007,-0.005 0.009,-0.0116 0.009,-0.0185 l 0.0116,-0.0116 c 0.005,-0.005 0.007,-0.009 0.007,-0.0162 0,-0.005 0.009,-0.0139 0.0139,-0.0185 0.007,-0.009 0.0139,-0.0162 0.0185,-0.0324 0.002,-0.0255 0.009,-0.0533 0.0162,-0.0788 0.007,-0.0278 0.0162,-0.0556 0.0185,-0.0857 0.005,-0.0788 0.009,-0.17843 -0.0116,-0.241 -0.005,-0.0139 -0.0162,-0.0232 -0.0324,-0.0185 -0.0209,0.005 -0.0417,0.009 -0.0626,0.0139 -0.005,-0.002 -0.009,-0.002 -0.0162,-0.002 -0.0255,0.005 -0.106572,0.002 -0.129744,0 0,0 -0.07647,-0.007 -0.122817,0 -0.0046,-0.002 -0.0093,-0.002 -0.0139,-0.002 -0.01159,0 -0.02317,0.009 -0.02781,0.0209 -0.0093,0.002 -0.02781,0 -0.04171,0 -0.04171,0 -0.09964,-0.002 -0.14599,0.0232 -0.08806,-0.005 -0.166844,0 -0.240998,0.0116 -0.0093,-0.009 -0.02549,-0.009 -0.03708,-0.002 -0.02317,0 -0.09269,-0.009 -0.129769,-0.0139 l -0.01159,-0.002 c -0.01622,-0.002 -0.02781,0.007 -0.03244,0.0209 -0.0093,0.0348 -0.0093,0.0811 -0.0023,0.12745 -0.01159,0.0556 0.0023,0.0973 0.01622,0.13672 l 0.0046,0.0162 0.02781,-0.009 v 0 0 l -0.02549,0.0116 c 0.01159,0.0394 0.02317,0.0742 0.0139,0.10659 -0.03476,0.0417 -0.01159,0.0857 0.0046,0.11818 0.01854,0.0371 0.01854,0.044 0.007,0.0579 -0.09501,0.11354 -0.03939,0.22941 0.0093,0.32905 l 0.0023,0.005 c -0.01159,0.0463 -0.0046,0.0881 0.0046,0.12976 0.0093,0.051 0.01622,0.0973 -0.01159,0.14136 -0.007,0.0116 -0.007,0.0255 0.0023,0.0348 0.0046,0.007 0.0046,0.0139 -0.01622,0.044 -0.01622,0.0232 -0.03244,0.051 -0.02781,0.0811 -0.02317,0.0185 -0.04403,0.0394 -0.06025,0.0626 -0.0046,0.002 -0.0093,0.005 -0.0139,0.009 -0.007,0.009 -0.0139,0.0116 -0.02317,0.0139 -0.007,0.002 -0.01622,0.005 -0.02317,0.009 -0.01159,0.002 -0.01854,0.009 -0.02317,0.0185 -0.007,0.0208 -0.02086,0.0278 -0.04403,0.0394 -0.02317,0.0116 -0.0533,0.0255 -0.06952,0.0626 -0.007,0.002 -0.01159,0.005 -0.01854,0.007 -0.01854,0.005 -0.03708,0.0116 -0.05793,0.0232 -0.0093,0.005 -0.0139,0.0139 -0.0139,0.0255 0.0023,0.044 0.0046,0.0742 0.007,0.0927 -0.0023,0.005 -0.0046,0.009 -0.0046,0.0139 0,0.005 0.0023,0.0116 0.0046,0.0162 -0.0023,0.009 -0.0046,0.0209 -0.007,0.0301 -0.0093,0.0371 -0.02317,0.0811 -0.01622,0.11586 -0.0093,0.0278 0,0.0602 0.01159,0.0834 l -0.02549,0.002 c -0.09964,0.009 -0.203922,0.0185 -0.303565,0.0209 v 0 c -0.007,-0.0116 -0.02086,-0.0139 -0.03244,-0.009 l -0.01854,0.007 c 0,0 -0.0023,0 -0.0023,0 -0.03939,-0.0139 -0.07879,-0.007 -0.115864,0 -0.0139,0.002 -0.02549,0.005 -0.03708,0.005 -0.0023,-0.007 -0.007,-0.0116 -0.01159,-0.0162 -0.0093,-0.009 -0.02549,-0.009 -0.03476,0 -0.0046,0.005 -0.0046,0.005 -0.01854,-0.002 -0.01159,-0.005 -0.02781,-0.0116 -0.04635,-0.005 0,0 -0.0023,0.002 -0.0046,0.002 -0.0023,0 -0.0046,0 -0.0046,0 -0.0533,0.009 -0.108913,0.0139 -0.178431,0.0162 -0.02549,0 -0.06952,0 -0.106596,-0.002 l -0.127451,-0.005 c -0.007,0 -0.01159,0.002 -0.01622,0.005 -0.0139,0.007 -0.01854,0.0209 -0.0139,0.0348 0.03012,0.095 0.03012,0.14831 0.03012,0.20856 0,0.0463 0,0.0927 0.01622,0.13903 -0.0046,0.007 -0.0046,0.0162 -0.0023,0.0232 0.02086,0.0626 0.01854,0.12745 0.01622,0.19001 l -0.007,0.10197 c 0,0.0209 -0.0023,0.0718 0,0.11354 -0.0023,0.0371 0,0.0649 0.0046,0.0857 0,0.007 0.007,0.0139 0.0139,0.0185 0.007,0.005 0.01622,0.005 0.02317,0.005 0.01854,-0.002 0.03476,-0.005 0.0533,-0.007 0,0.002 0.0023,0.002 0.0046,0.005 0.0046,0.005 0.01159,0.007 0.01854,0.007 0.0046,0 0.007,0 0.01159,-0.002 0.0533,-0.0232 0.08574,-0.0185 0.132086,-0.009 l 0.01159,0.002 c -0.0046,0.007 -0.007,0.0139 -0.007,0.0255 -0.0023,0.0139 0.007,0.0278 0.02317,0.0301 v 0 c 0,0.007 -0.0023,0.0139 -0.0046,0.0255 v 0 0 c -0.01159,0.005 -0.02086,0.0162 -0.02317,0.0278 -0.0023,0.0162 0.0046,0.0278 0.0139,0.0394 0,0.002 0,0.005 0,0.007 0.0093,0.0996 0.01159,0.21551 0.01159,0.32674 v 0.0232 c 0,0.007 0,0.0116 0.007,0.0162 0.0023,0.005 0.0023,0.0162 0.0023,0.0232 0,0.0116 0.0023,0.0255 0.007,0.0371 -0.02085,0.0371 -0.02781,0.0834 -0.03012,0.11586 v 0.002 c -0.03708,0.0464 -0.01854,0.0811 -0.007,0.0996 0.0093,0.0162 0.0093,0.0185 -0.007,0.0348 -0.007,0.007 -0.0093,0.0185 -0.007,0.0278 0.0023,0.009 0.0093,0.0162 0.01622,0.0185 0,0.007 0,0.0209 -0.0023,0.0301 -0.0023,0.0232 -0.0046,0.051 0.0046,0.0742 -0.007,0.005 -0.0093,0.0139 -0.0093,0.0208 0,0.0579 -0.0046,0.1205 -0.0093,0.18075 -0.0046,0.051 -0.007,0.0996 -0.0093,0.14367 0,0.005 0,0.009 0.0023,0.0139 0.0139,0.0301 0.01159,0.0695 0.0093,0.11123 -0.0023,0.0487 -0.0046,0.0996 0.02086,0.14367 v 0.005 c -0.01159,0.0533 -0.02549,0.12977 -0.0139,0.20161 -0.0023,0.005 -0.0023,0.009 -0.0023,0.0139 0.0023,0.0788 0.007,0.17612 0.03244,0.24332 -0.02781,0.0232 -0.03476,0.051 -0.03939,0.0742 -0.0023,0.009 -0.0046,0.0185 -0.007,0.0278 -0.0023,0.007 -0.0023,0.0139 0,0.0209 0.01159,0.0278 0.0139,0.0742 0.01854,0.12282 0.0046,0.0417 0.007,0.0881 0.01622,0.12745 -0.0093,0.0162 -0.007,0.0348 -0.007,0.0487 0,0.005 0,0.009 0,0.0116 -0.0046,0.002 -0.0093,0.005 -0.01159,0.009 -0.0046,0.007 -0.007,0.0162 -0.0046,0.0232 0.06952,0.26881 0.03476,0.59786 -0.007,0.82728 -0.0023,0.007 0,0.0139 0.0046,0.0185 0.01159,0.0209 0.03012,0.044 0.04866,0.0649 0.007,0.009 0.0139,0.0162 0.02086,0.0255 0,0.002 0,0.002 0,0.005 0.0023,0.0185 -0.0046,0.0371 -0.0093,0.0579 -0.0046,0.0162 -0.0093,0.0324 -0.01159,0.0487 -0.0093,0.007 -0.0139,0.0208 -0.0093,0.0324 0.0046,0.0139 0,0.0301 -0.0023,0.0487 -0.0046,0.0232 -0.01159,0.051 -0.0046,0.0811 0,0 0,0 0,0 -0.0023,0.002 -0.0023,0.005 -0.0023,0.007 -0.007,0.005 -0.01159,0.0139 -0.01159,0.0232 -0.0023,0.0927 -0.0023,0.19002 0.0023,0.30125 l 0.01159,0.31747 v 0 l 0.0023,0.0672 v 0.009 c 0,0.007 0.0046,0.0162 0.0093,0.0209 0.0046,0.005 0.01159,0.007 0.01854,0.007 0,0 0.0023,0 0.0023,0 l 0.06025,-0.005 c 0.06488,0.002 0.127451,0.007 0.196969,0.0116 0.210874,-0.0209 0.431016,-0.005 0.662745,0.0162 0.183066,0.0139 0.375401,0.0301 0.565419,0.0255 0.007,0 0.0139,-0.002 0.01854,-0.007 0.0672,0.009 0.136721,-0.002 0.199287,-0.0116 0.06025,-0.009 0.118182,-0.0185 0.159893,-0.007 0.0023,0.007 0.0093,0.0139 0.01622,0.0162 0.05098,0.0209 0.106576,-0.002 0.155236,-0.0208 0.0278,-0.0116 0.0649,-0.0255 0.0742,-0.0185 0.0116,0.009 0.0301,0.007 0.0394,-0.005 l 0.005,-0.007 c 0.007,0 0.0116,0 0.0139,0 0.0116,0.0209 0.0417,0.0232 0.0602,0.0255 0.0209,-0.002 0.0324,-0.0116 0.0394,-0.0208 0,0 0.002,-0.002 0.009,0 0.0255,0.0324 0.0811,0.0301 0.14136,0.0278 h 0.005 c 0,0.0185 -0.002,0.0324 -0.007,0.0394 -0.009,0 -0.0185,0.007 -0.0232,0.0116 -0.005,-0.005 -0.009,-0.005 -0.0185,-0.005 -0.0116,0 -0.0232,0.009 -0.0278,0.0209 -0.002,0.009 -0.002,0.0185 -0.002,0.0324 v 0.005 c -0.007,0.002 -0.0139,0.007 -0.0162,0.0139 l -0.0162,0.0394 c 0,0.002 0,0.002 0,0.005 -0.007,-0.002 -0.0139,-0.005 -0.0208,-0.002 -0.0533,0.0162 -0.0672,0.0649 -0.0788,0.0996 -0.005,0.0162 -0.009,0.0348 -0.0162,0.0371 -0.0139,0.005 -0.0232,0.0208 -0.0185,0.0348 0.005,0.0116 0.0139,0.0208 0.0278,0.0208 0.002,0 0.007,0.002 0.0116,0.002 0.002,0 0.007,0 0.0116,-0.002 0.007,-0.002 0.0139,-0.007 0.0162,-0.0139 l 0.0788,-0.13904 c 0,-0.002 0,-0.005 0.002,-0.007 0.005,0.002 0.007,0.002 0.0116,0.002 0.005,0 0.009,-0.005 0.0139,-0.007 0.005,0.0255 0.0139,0.0417 0.0255,0.0487 0.005,0.002 0.0116,0.005 0.0162,0.005 0.002,0.002 0.007,0.005 0.009,0.009 0.0116,0.009 0.0278,0.0232 0.0463,0.0232 0.005,0 0.009,0 0.0139,-0.002 0.0278,-0.009 0.0394,-0.0417 0.0487,-0.0742 0.002,-0.0116 -0.002,-0.0208 -0.009,-0.0278 l -0.005,-0.005 c 0,-0.002 0.002,-0.002 0.002,-0.005 l 0.007,-0.005 c 0.007,-0.005 0.0116,-0.0139 0.0116,-0.0232 0.002,-0.0811 0.0116,-0.13672 0.0232,-0.19697 l 0.007,-0.0348 c 0.002,-0.0139 -0.007,-0.0278 -0.0185,-0.0324 -0.0255,-0.007 -0.0603,-0.0162 -0.11587,-0.0209 v 0 c -0.009,-0.002 -0.0209,-0.005 -0.0394,-0.005 h -0.0139 c -0.0139,0 -0.0232,0.009 -0.0255,0.0185 -0.0579,0.007 -0.0973,0.002 -0.13208,-0.002 -0.009,0 -0.0185,-0.002 -0.0255,-0.002 l -0.0116,-0.007 c -0.0139,-0.0116 -0.0301,-0.0139 -0.0487,-0.0116 0.007,0 0.0139,-0.002 0.0232,-0.005 0.0162,-0.002 0.0255,-0.0162 0.0255,-0.0301 -0.005,-0.0788 -0.005,-0.15757 -0.005,-0.22246 v -0.0324 c 0,-0.0742 -0.005,-0.13904 -0.0162,-0.19928 0.005,-0.007 0.007,-0.0139 0.005,-0.0232 -0.0232,-0.1483 -0.0162,-0.30588 -0.009,-0.45882 0.005,-0.095 0.009,-0.19465 0.007,-0.28966 0.002,-0.0626 0,-0.11123 -0.002,-0.16453 -0.002,-0.0301 -0.005,-0.0626 -0.005,-0.0973 0.005,-0.002 0.007,-0.007 0.009,-0.009 0.005,-0.007 0.005,-0.0162 0.002,-0.0232 -0.0255,-0.0811 -0.0139,-0.16684 -0.002,-0.25722 0.0116,-0.0834 0.0209,-0.17148 0.005,-0.25722 0.002,-0.002 0.002,-0.002 0.005,-0.005 0.009,-0.0116 0.007,-0.0278 -0.002,-0.0371 -0.005,-0.005 -0.005,-0.0255 -0.005,-0.0371 0,-0.0209 0,-0.0463 -0.0162,-0.0626 v -0.002 c 0.005,-0.009 0.005,-0.0185 0,-0.0255 -0.0324,-0.0579 -0.0209,-0.11123 -0.0116,-0.1738 0.009,-0.051 0.0185,-0.10659 0.009,-0.16916 0.005,-0.007 0.007,-0.0162 0.005,-0.0232 -0.009,-0.0348 -0.0116,-0.0579 -0.0116,-0.0765 0.005,-0.002 0.009,-0.007 0.0116,-0.0139 0.0348,-0.0904 0.0232,-0.18539 0.0116,-0.27576 -0.005,-0.0324 -0.009,-0.0649 -0.009,-0.0973 0.005,0 0.009,-0.002 0.0116,-0.005 0.009,-0.007 0.0139,-0.0209 0.009,-0.0324 -0.0139,-0.0324 -0.0116,-0.0857 -0.009,-0.13903 0,-0.0324 0.002,-0.0649 0,-0.095 0.007,-0.007 0.009,-0.0185 0.007,-0.0301 l -0.005,-0.0116 c 0.007,-0.005 0.0116,-0.0139 0.0116,-0.0232 0,-0.0649 -0.005,-0.12745 -0.009,-0.1877 -0.002,-0.0371 -0.007,-0.0718 -0.009,-0.10891 0.005,-0.002 0.007,-0.005 0.009,-0.007 0.007,-0.007 0.009,-0.0185 0.007,-0.0278 -0.0185,-0.0533 -0.0139,-0.11123 -0.0116,-0.17379 0.002,-0.0394 0.005,-0.0788 0.002,-0.11819 0.002,-0.005 0.005,-0.009 0.005,-0.0139 0.002,-0.0695 0.002,-0.13904 0,-0.21319 l -0.0116,-0.22014 c 0,-0.007 -0.005,-0.0139 -0.009,-0.0209 -0.007,-0.005 -0.0139,-0.007 -0.0208,-0.007 l -0.0371,0.002 c 0.0742,-0.0394 0.15294,-0.0348 0.23637,-0.0301 0.0139,0 0.0255,0.002 0.0394,0.002 0,0 0.002,0 0.002,0 -0.002,0.0139 -0.002,0.0278 0.005,0.0394 0.009,0.0209 0.0324,0.0324 0.0487,0.0301 0.007,0 0.0139,0.002 0.0209,0.002 0.009,0.002 0.0209,0.005 0.0348,0.005 0.0162,0 0.0348,-0.005 0.051,-0.0185 0.005,-0.005 0.007,-0.009 0.009,-0.0139 0.005,-0.005 0.007,-0.009 0.007,-0.0162 0,-0.002 0.002,-0.005 0.0139,-0.0139 0.009,-0.007 0.0232,-0.0139 0.0301,-0.0278 0.005,-0.007 0.009,-0.0139 0.009,-0.0209 0,-0.009 -0.005,-0.0162 -0.0116,-0.0209 0.0116,-0.007 0.0162,-0.0185 0.0162,-0.0232 0.002,-0.0139 -0.005,-0.0232 -0.0116,-0.0301 -0.009,-0.0487 -0.009,-0.1066 -0.0116,-0.16221 v -0.0209 c 0,-0.009 -0.002,-0.0162 -0.009,-0.0209 0,0 0.002,0 0,-0.002 0,-0.005 0,-0.009 -0.002,-0.0139 0.0139,-0.0162 0.0209,-0.0371 0.0255,-0.0556 0.009,-0.007 0.0209,-0.0185 0.0232,-0.0371 z"
       class="fil1" />
  </g>
</svg>
